HIERARCHY
ROOT Bip001_Pelvis
{
  OFFSET 34.4345 95.6767 -26.8758
  CHANNELS 6 Xposition Yposition Zposition Zrotation Xrotation Yrotation
  JOINT Bip001_Spine
  {
    OFFSET 1.4188e-005 10.2191 -0.0116013
    CHANNELS 3 Zrotation Xrotation Yrotation
    JOINT Bip001_L_Thigh
    {
      OFFSET 11.0458 -10.2192 0.0116197
      CHANNELS 3 Zrotation Xrotation Yrotation
      JOINT Bip001_L_Calf
      {
        OFFSET -0.707118 -44.0221 0.360014
        CHANNELS 3 Zrotation Xrotation Yrotation
        JOINT Bip001_L_Foot
        {
          OFFSET -0.651902 -40.5938 -3.56146
          CHANNELS 3 Zrotation Xrotation Yrotation
          JOINT Bip001_L_Toe0
          {
            OFFSET 0.0530839 -10.2181 13.1504
            CHANNELS 3 Zrotation Xrotation Yrotation
            End Site
            {
              OFFSET -1.02532e-005 0 7.55606
            }
          }
        }
      }
    }
    JOINT Bip001_R_Thigh
    {
      OFFSET -11.0458 -10.2191 0.0115893
      CHANNELS 3 Zrotation Xrotation Yrotation
      JOINT Bip001_R_Calf
      {
        OFFSET 0.706994 -44.0221 0.35984
        CHANNELS 3 Zrotation Xrotation Yrotation
        JOINT Bip001_R_Foot
        {
          OFFSET 0.651786 -40.5938 -3.5613
          CHANNELS 3 Zrotation Xrotation Yrotation
          JOINT Bip001_R_Toe0
          {
            OFFSET -0.0531479 -10.2181 13.1504
            CHANNELS 3 Zrotation Xrotation Yrotation
            End Site
            {
              OFFSET -1.02894e-005 0 7.55606
            }
          }
        }
      }
    }
    JOINT Bip001_Spine1
    {
      OFFSET 1.87041e-005 14.5736 1.08638
      CHANNELS 3 Zrotation Xrotation Yrotation
      JOINT Bip001_Spine2
      {
        OFFSET 2.24614e-005 14.5058 -1.69078
        CHANNELS 3 Zrotation Xrotation Yrotation
        JOINT Bip001_Neck
        {
          OFFSET 2.20278e-005 15.3945 -0.489414
          CHANNELS 3 Zrotation Xrotation Yrotation
          JOINT Bip001_L_Clavicle
          {
            OFFSET 6.06036 -0.000579998 0.00836775
            CHANNELS 3 Zrotation Xrotation Yrotation
            JOINT Bip001_L_UpperArm
            {
              OFFSET 11.5509 -0.0600302 0.00193952
              CHANNELS 3 Zrotation Xrotation Yrotation
              JOINT Bip001_L_Forearm
              {
                OFFSET 25.9523 0.0806089 -2.15551
                CHANNELS 3 Zrotation Xrotation Yrotation
                JOINT Bip001_L_Hand
                {
                  OFFSET 32.2475 0.153767 1.63968
                  CHANNELS 3 Zrotation Xrotation Yrotation
                  JOINT Bip001_L_Finger0
                  {
                    OFFSET 6.04639 -2.20976 5.90322
                    CHANNELS 3 Zrotation Xrotation Yrotation
                    End Site
                    {
                      OFFSET 4.22375 -1.43895 0.606485
                    }
                  }
                  JOINT Bip001_L_Finger1
                  {
                    OFFSET 11.0826 -0.704819 -0.198153
                    CHANNELS 3 Zrotation Xrotation Yrotation
                    End Site
                    {
                      OFFSET 6.20027 -0.397518 -0.0787166
                    }
                  }
                }
              }
            }
          }
          JOINT Bip001_R_Clavicle
          {
            OFFSET -6.06037 -0.000563197 0.00835105
            CHANNELS 3 Zrotation Xrotation Yrotation
            JOINT Bip001_R_UpperArm
            {
              OFFSET -11.5509 -0.0599978 0.00190698
              CHANNELS 3 Zrotation Xrotation Yrotation
              JOINT Bip001_R_Forearm
              {
                OFFSET -25.9523 0.0806822 -2.15589
                CHANNELS 3 Zrotation Xrotation Yrotation
                JOINT Bip001_R_Hand
                {
                  OFFSET -32.2475 0.153859 1.63989
                  CHANNELS 3 Zrotation Xrotation Yrotation
                  JOINT Bip001_R_Finger0
                  {
                    OFFSET -6.04641 -2.20976 5.90317
                    CHANNELS 3 Zrotation Xrotation Yrotation
                    End Site
                    {
                      OFFSET -4.22376 -1.43895 0.60647
                    }
                  }
                  JOINT Bip001_R_Finger1
                  {
                    OFFSET -11.0826 -0.704794 -0.198182
                    CHANNELS 3 Zrotation Xrotation Yrotation
                    End Site
                    {
                      OFFSET -6.20028 -0.397504 -0.0787333
                    }
                  }
                }
              }
            }
          }
          JOINT Bip001_Head
          {
            OFFSET 1.09673e-005 11.2744 2.05948
            CHANNELS 3 Zrotation Xrotation Yrotation
            End Site
            {
              OFFSET 2.89576e-005 20.8808 -2.77728e-005
            }
          }
        }
      }
    }
  }
}
MOTION
Frames:	16
Frame Time:	0.04
33.6796 95.9672 -27.8367 0.586881 -0.261117 1.50648 -0.321046 2.08604 -0.128551 4.46014 -2.01727 5.52566 -0.483895 6.0857 -5.33762 2.24456 -4.19211 -0.0137909 0.805302 -3.79512 -0.374037 -3.70383 -2.57779 -1.08842 0.147103 10.0809 0.177553 -5.66799 -9.24826 1.73171 2.26348 -7.63553 2.30376 -0.648689 4.17623 -0.243071 -0.648614 4.17622 -0.243058 1.74636 -8.84918 -2.61027 -25.8673 9.10218 2.16673 -57.8922 43.4684 2.70813 16.2014 3.70452 -19.5461 8.74992 1.11784 -4.75962 3.18055e-015 6.36111e-015 -0 3.18055e-015 6.36111e-015 1.59028e-015 22.7687 16.7277 19.733 59.3913 29.0791 -3.53539 -13.8128 23.8285 14.5649 -10.8322 -1.71904 10.793 3.18055e-015 1.59028e-015 -0 -3.18055e-015 1.59028e-015 7.95139e-016 -1.64777 -5.37009 -1.84269 
33.6764 95.9788 -27.8008 0.587544 -0.298412 1.44551 -0.321046 2.08604 -0.128551 4.45132 -1.8937 5.39764 -0.485995 5.98019 -5.13431 2.094 -4.22418 -0.0137915 0.749301 -3.69383 -0.33917 -3.69975 -2.5165 -0.999156 0.148693 10.0471 0.159785 -5.6479 -9.21361 1.71574 2.25034 -7.59418 2.28838 -0.648689 4.17623 -0.243071 -0.648614 4.17622 -0.243058 1.75728 -8.79556 -2.59763 -25.9207 9.0188 2.26531 -57.9105 43.4653 2.73479 16.2814 3.71747 -19.5747 8.7921 1.05823 -4.80485 -3.18055e-015 0 4.77083e-015 -3.18055e-015 6.36111e-015 3.18055e-015 22.7298 16.6501 19.6925 59.6515 29.2018 -3.41658 -13.816 23.8719 14.1205 -10.7967 -1.79161 10.7194 -0 0 7.95139e-016 -4.41391e-032 1.59028e-015 1.59028e-015 -1.6158 -5.36416 -1.83828 
33.6634 95.9794 -27.7892 0.558998 -0.26478 1.40232 -0.321008 2.0708 -0.130569 4.49465 -1.88035 5.2837 -0.510812 5.95555 -4.96125 2.07171 -4.24495 -0.0137918 0.765507 -3.68763 -0.347236 -3.67153 -2.50529 -0.842136 0.190974 9.98225 0.128617 -5.66293 -9.18328 1.63302 2.24002 -7.5578 2.28344 -0.648633 4.14229 -0.2474 -0.64857 4.14229 -0.247392 1.81647 -8.7422 -2.61584 -25.9818 8.92244 2.38068 -57.962 43.3537 2.81541 16.4289 3.87153 -19.6509 8.82189 1.08619 -4.8194 -3.18055e-015 6.36111e-015 -1.59028e-015 -3.18055e-015 3.18056e-015 -1.59028e-015 22.5657 16.555 19.6483 59.8423 29.4026 -3.37431 -13.7524 24.2187 13.6694 -11.2822 -2.90172 10.413 -1.54487e-031 -3.18055e-015 -2.78298e-015 3.18055e-015 -1.59028e-015 -1.19271e-015 -1.64496 -5.28132 -1.83714 
33.6631 95.9783 -27.7932 0.548976 -0.236044 1.3879 -0.320602 2.07169 -0.141731 4.50773 -1.95 5.32994 -0.520741 6.04662 -4.99972 2.20606 -4.22402 -0.0137915 0.78319 -3.72789 -0.352943 -3.66281 -2.51216 -0.777338 0.236156 9.94425 0.19273 -5.70712 -9.16051 1.52369 2.24349 -7.59647 2.30041 -0.647341 4.1369 -0.269256 -0.64727 4.1369 -0.269728 1.82281 -8.7152 -2.63593 -25.9931 8.87949 2.41883 -57.932 43.2074 2.87685 16.4731 3.95093 -19.7631 8.88505 1.16826 -4.81596 3.18055e-015 -3.18055e-015 -1.59028e-015 3.18055e-015 -3.18056e-015 -0 22.5354 16.5114 19.6081 59.7572 29.4566 -3.61223 -13.7419 24.0417 13.8218 -11.3417 -2.96589 10.0864 3.18055e-015 1.59028e-015 -3.18055e-015 8.82782e-032 1.59028e-015 -3.18055e-015 -1.6213 -5.28163 -1.85733 
33.6556 95.983 -27.8082 0.530507 -0.215568 1.3716 -0.320353 2.0737 -0.148483 4.55044 -1.97635 5.32161 -0.554346 6.03829 -4.95491 2.14318 -4.24865 -0.0137919 0.769374 -3.71402 -0.346759 -3.65961 -2.55688 -0.728377 0.253299 9.93257 0.211792 -5.71806 -9.12851 1.4643 2.24049 -7.55757 2.29041 -0.647039 4.14739 -0.27676 -0.647034 4.14739 -0.276741 1.82518 -8.81464 -2.6622 -26.0396 8.97049 2.44169 -57.7745 43.1555 2.81578 16.2844 3.72617 -19.7601 8.96976 1.14476 -4.80725 -0 -9.54166e-015 -0 3.18055e-015 -9.54167e-015 -1.59028e-015 22.6148 16.6068 19.5074 59.5288 29.4266 -3.96813 -13.9486 23.6386 14.2702 -11.1958 -2.6431 10.0441 3.18055e-015 -4.77083e-015 -0 3.18055e-015 -4.77083e-015 -0 -1.62425 -5.28394 -1.88171 
33.6514 95.9843 -27.8167 0.5294 -0.190979 1.40411 -0.320225 2.07888 -0.151644 4.56224 -1.98541 5.25073 -0.573793 5.97396 -4.90131 2.08405 -4.25256 -0.013792 0.738712 -3.67022 -0.32198 -3.66182 -2.56706 -0.738118 0.273521 9.89736 0.246623 -5.72516 -9.11338 1.42386 2.24101 -7.56748 2.29151 -0.645487 4.1575 -0.300276 -0.645477 4.15751 -0.300619 1.76511 -8.90507 -2.66271 -25.9834 9.09896 2.34052 -57.6862 43.0846 2.77789 16.1427 3.68393 -19.7158 8.94734 1.15836 -4.79001 -3.18055e-015 6.36111e-015 -0 0 0 -0 22.6999 16.6867 19.4424 59.4771 29.3882 -4.25874 -14.3175 23.3569 14.6153 -11.1373 -2.56708 10.2856 4.41391e-032 3.18055e-015 -7.95139e-016 4.41391e-032 1.59028e-015 -1.59028e-015 -1.60778 -5.24737 -1.9016 
33.6484 95.9804 -27.8278 0.538102 -0.169487 1.4422 -0.3202 2.08256 -0.152062 4.56791 -2.04075 5.2301 -0.592817 6.01372 -4.90406 2.0489 -4.28393 -0.0137925 0.728368 -3.66707 -0.315159 -3.66811 -2.58556 -0.80311 0.266485 9.89727 0.265964 -5.7376 -9.13703 1.44314 2.24767 -7.60784 2.30497 -0.634033 4.16223 -0.312652 -0.634049 4.16223 -0.312642 1.46562 -9.19383 -2.64379 -25.639 9.4197 2.33853 -57.6641 43.1145 2.66003 16.0429 3.7142 -19.5809 8.89559 1.17254 -4.87723 6.36111e-015 3.18055e-015 -1.59028e-015 6.36111e-015 3.18056e-015 -3.18055e-015 22.8991 16.9964 19.5434 59.5096 28.9665 -4.92228 -14.8352 22.6241 15.5821 -10.9542 -2.00727 10.3872 -4.41391e-032 3.18055e-015 7.95139e-016 -4.41391e-032 3.18056e-015 7.95139e-016 -1.38053 -4.88098 -1.97935 
33.6617 95.9745 -27.855 0.58833 -0.152812 1.45873 -0.32836 2.08722 -0.152122 4.50829 -2.03547 5.17114 -0.619645 5.89396 -4.96547 2.29678 -4.06166 -0.0137886 0.779219 -3.83087 -0.321708 -3.71854 -2.65798 -0.850037 0.262244 9.97677 0.216721 -5.71918 -9.18841 1.50127 2.25 -7.60798 2.3068 -0.651132 4.17345 -0.292594 -0.651134 4.17346 -0.292596 1.29649 -9.57123 -2.68175 -25.4002 9.73505 2.61514 -57.7116 43.0887 2.64718 16.1609 3.73535 -19.7163 8.89905 1.24528 -4.96256 3.18055e-015 3.18055e-015 -1.59028e-015 3.18055e-015 9.54167e-015 -1.59028e-015 23.3309 17.3392 19.155 59.0506 28.004 -7.12719 -16.956 20.4508 18.9962 -8.68766 1.52708 10.717 -0 0 2.38542e-015 -0 0 1.59028e-015 -1.23196 -4.63195 -2.08612 
33.6682 95.98 -27.8503 0.602703 -0.150559 1.55457 -0.33011 2.09141 -0.150371 4.54119 -2.02127 5.10997 -0.703922 5.8556 -4.9827 2.30842 -4.05837 -0.0137886 0.760561 -3.79943 -0.327894 -3.7013 -2.60097 -1.05753 0.174162 9.91946 0.208359 -5.67016 -9.19147 1.61292 2.25367 -7.62059 2.31428 -0.667411 4.17525 -0.284267 -0.667452 4.17524 -0.284272 1.48459 -9.54102 -2.79851 -25.6599 9.61786 2.7939 -57.8549 42.4176 3.30603 16.6719 3.53749 -20.8399 8.69098 1.61047 -4.86401 6.36111e-015 6.36111e-015 -1.59028e-015 6.36111e-015 3.18056e-015 -0 23.677 17.2882 18.6278 58.1615 27.4105 -9.20561 -19.5562 17.5059 21.8987 -6.63289 4.35776 11.5811 -3.18055e-015 0 3.97569e-016 0 0 -3.97569e-016 -1.42215 -4.94835 -2.12536 
33.6771 95.975 -27.8519 0.542109 -0.162744 1.64236 -0.326057 2.09461 -0.170244 4.62292 -2.10476 5.15906 -0.753252 6.0108 -5.05294 2.33417 -4.1431 -0.01379 0.786339 -3.78214 -0.367124 -3.62034 -2.51176 -1.63144 -0.0158685 9.78701 0.355733 -5.55605 -9.20765 1.98862 2.26391 -7.66126 2.33125 -0.643249 4.18 -0.329008 -0.644361 4.17999 -0.328954 1.58333 -9.58066 -2.82242 -25.699 9.62081 2.88489 -58.158 41.4881 4.03755 17.0125 3.0716 -21.9259 9.041 1.48075 -4.85993 -3.18055e-015 -6.36111e-015 4.77083e-015 -6.36111e-015 -6.36111e-015 4.77083e-015 23.8729 17.3009 18.3117 57.5063 26.4705 -10.8766 -23.1717 14.2478 23.6248 -4.83463 4.86656 12.8496 0 1.59028e-015 -0 3.18055e-015 1.59028e-015 -1.59028e-015 -1.53754 -5.09033 -2.10417 
33.7716 95.9686 -27.9084 0.670148 -0.0688562 1.53782 -0.34399 2.07887 -0.176053 4.4227 -2.12614 5.08806 -0.737807 5.84665 -4.91463 2.44578 -3.99957 -0.022917 0.78645 -3.8285 -0.366136 -3.82694 -2.76827 -2.07513 -0.0716124 10.0567 0.397192 -5.42651 -9.36201 2.46144 2.27897 -7.69254 2.32287 -0.682745 4.15873 -0.339415 -0.681983 4.15874 -0.33967 1.56455 -9.58163 -2.76954 -25.6051 9.62446 2.90948 -58.3148 40.7583 4.52886 17.134 2.44874 -22.6677 9.52865 1.26469 -4.99645 -3.18055e-015 -3.18055e-015 -0 -6.36111e-015 -3.18056e-015 3.18055e-015 24.0069 17.2292 18.0223 56.5397 25.2751 -12.0514 -27.9159 15.5087 24.9397 -6.94532 2.96962 12.3576 3.18055e-015 1.59028e-015 -7.95139e-016 6.36111e-015 0 -1.59028e-015 -1.47548 -5.05732 -2.07098 
33.8786 95.9773 -27.9934 0.807531 0.00233567 1.41881 -0.37075 2.06541 -0.160286 4.24451 -2.16413 5.17817 -0.75667 5.74978 -4.8785 2.4448 -3.93137 -0.030034 0.798298 -3.78259 -0.366614 -4.04864 -3.0018 -1.53334 0.104023 10.2523 0.359171 -5.52874 -9.31954 2.0526 2.28182 -7.71094 2.3472 -0.735526 4.13182 -0.307889 -0.735467 4.13181 -0.307539 1.69775 -9.37468 -2.80345 -25.6424 9.42118 2.82719 -58.1785 40.5786 4.52202 16.8456 1.59607 -22.6368 9.55656 1.15558 -4.90064 -8.82781e-032 3.18055e-015 1.59028e-015 3.18055e-015 3.18056e-015 -0 23.9007 16.9389 17.7644 55.3285 23.574 -13.1466 -34.1702 20.4407 27.6142 -12.9799 0.914407 8.2389 -3.18055e-015 -2.38542e-015 -7.95139e-016 -3.18055e-015 -2.38542e-015 -7.95139e-016 -1.55048 -5.24926 -2.06357 
33.9472 95.974 -28.0609 0.888662 0.0648228 1.38623 -0.386964 2.05062 -0.162967 4.12415 -2.24068 5.42646 -0.738862 5.72676 -5.11474 2.63967 -3.79753 -0.0317907 0.845268 -3.88109 -0.42189 -4.16024 -3.16154 -1.24676 0.164711 10.3798 0.346912 -5.58353 -9.31273 1.81225 2.29768 -7.74552 2.3518 -0.76885 4.1023 -0.312189 -0.768935 4.10229 -0.311055 1.83503 -9.23039 -2.85108 -25.8113 9.28734 2.71296 -57.7801 40.4053 4.46672 16.3631 0.66763 -22.4589 9.38228 1.03153 -4.54476 2.64834e-031 -3.18055e-015 4.77083e-015 6.36111e-015 -3.18056e-015 6.36111e-015 23.4751 16.7043 17.7084 53.775 19.8246 -14.0492 -37.3763 14.0238 31.2918 -11.7342 1.95986 7.32215 -6.36111e-015 -1.59028e-015 -0 -6.36111e-015 -3.18056e-015 1.59028e-015 -1.5891 -5.23581 -2.0714 
33.9897 95.9715 -28.1286 0.939247 0.108998 1.3278 -0.40678 2.04304 -0.16698 4.07348 -2.31094 5.458 -0.748436 5.73952 -5.08711 2.53369 -3.86856 -0.033297 0.75341 -3.75861 -0.343047 -4.19783 -3.28975 -1.21196 0.111182 10.4637 0.326784 -5.57756 -9.3331 1.85496 2.29537 -7.75603 2.36878 -0.808198 4.0872 -0.318679 -0.808226 4.08719 -0.319441 1.78693 -9.21361 -2.86786 -25.729 9.30443 2.60087 -57.2687 40.0572 4.37394 15.8237 -0.187815 -22.3565 9.1301 1.16851 -4.22158 -2.64834e-031 9.54166e-015 1.59028e-015 -5.29669e-031 6.36111e-015 4.77083e-015 22.9416 16.5694 17.7724 52.189 13.1324 -14.5393 -39.4259 6.4407 37.4383 -10.1082 2.94701 7.27491 -3.18055e-015 -1.59028e-015 -9.54166e-015 -3.18055e-015 0 -9.54166e-015 -1.48167 -5.15235 -2.11603 
33.9671 95.9716 -28.15 0.75488 -0.128968 1.3574 -0.377176 2.09083 -0.196034 4.30081 -2.26292 5.92752 -0.800527 6.01054 -5.59831 2.74752 -3.88012 -0.0345867 0.828978 -3.91101 -0.391735 -3.98138 -2.96703 -0.770275 0.123318 10.1424 0.136054 -5.61108 -9.15003 1.66193 2.2704 -7.75941 2.43772 -0.748871 4.18289 -0.378702 -0.74842 4.1829 -0.378643 1.61411 -9.26928 -2.81913 -25.5334 9.37438 2.63155 -56.8046 39.684 4.336 15.4819 -0.715635 -22.323 9.14676 1.286 -3.9181 0 0 -0 -3.18055e-015 0 -0 22.7636 16.5294 17.7312 49.5577 3.92437 -14.5369 -42.5877 4.24255 47.1003 -12.1649 2.60266 6.66095 9.54166e-015 4.77083e-015 6.36111e-015 9.54166e-015 6.36111e-015 9.54166e-015 -1.31358 -5.09756 -2.13501 
33.9464 95.9709 -28.2329 0.641359 -0.19163 1.35825 -0.367543 2.09858 -0.209442 4.43583 -2.36577 6.35192 -0.790952 6.22939 -6.02785 2.90377 -3.87934 -0.0357045 0.857843 -3.99273 -0.414399 -3.84716 -2.92629 -0.66539 0.110608 10.0396 0.1277 -5.61991 -9.04152 1.59644 2.27082 -7.75355 2.43434 -0.724797 4.20114 -0.410474 -0.725532 4.20113 -0.410287 1.51552 -9.25704 -2.78339 -25.3295 9.35207 2.70909 -56.4828 39.3663 4.2447 15.0495 -2.07284 -22.2834 8.59992 1.31541 -3.47841 1.41245e-030 1.27222e-014 -6.36111e-015 1.05934e-030 9.54167e-015 -6.36111e-015 22.5206 16.4957 17.9449 46.4547 -8.78871 -14.1123 -45.3106 4.16493 59.7381 -14.8732 3.33315 6.37891 1.59028e-015 5.56597e-015 6.36111e-015 -3.18055e-015 7.15625e-015 6.36111e-015 -1.20298 -5.0873 -2.13998 
